<?xml version="1.0" encoding="UTF-8"?>
<!DOCTYPE svg PUBLIC "-//W3C//DTD SVG 1.1//EN" "http://www.w3.org/Graphics/SVG/1.1/DTD/svg11.dtd">
<svg xmlns="http://www.w3.org/2000/svg" version="1.1" width="128px" height="128px" style="shape-rendering:geometricPrecision; text-rendering:geometricPrecision; image-rendering:optimizeQuality; fill-rule:evenodd; clip-rule:evenodd" xmlns:xlink="http://www.w3.org/1999/xlink">
<g><path style="opacity:0.828" fill="#000000" d="M 25.5,-0.5 C 27.1667,-0.5 28.8333,-0.5 30.5,-0.5C 30.5,0.833333 30.5,2.16667 30.5,3.5C 52.5,3.5 74.5,3.5 96.5,3.5C 96.5,2.16667 96.5,0.833333 96.5,-0.5C 98.1667,-0.5 99.8333,-0.5 101.5,-0.5C 101.5,10.5 101.5,21.5 101.5,32.5C 108.831,32.7792 109.998,30.4459 105,25.5C 103.817,16.8438 107.317,14.0105 115.5,17C 117.347,19.5791 117.847,22.4124 117,25.5C 114.597,28.8638 112.43,32.3638 110.5,36C 107.576,36.9876 104.576,37.6543 101.5,38C 98.2352,41.3068 97.7352,45.1401 100,49.5C 112.041,43.7916 121.208,46.7916 127.5,58.5C 127.5,65.8333 127.5,73.1667 127.5,80.5C 126.167,80.5 124.833,80.5 123.5,80.5C 122.493,84.7795 123.826,87.7795 127.5,89.5C 127.5,94.1667 127.5,98.8333 127.5,103.5C 126.518,104.141 125.518,104.807 124.5,105.5C 123.669,111.807 123.169,118.141 123,124.5C 122.302,125.691 121.469,126.691 120.5,127.5C 115.5,127.5 110.5,127.5 105.5,127.5C 104.531,126.691 103.698,125.691 103,124.5C 102.5,118.175 102.334,111.842 102.5,105.5C 76.5,105.5 50.5,105.5 24.5,105.5C 24.6662,111.842 24.4995,118.175 24,124.5C 23.3021,125.691 22.4687,126.691 21.5,127.5C 16.5,127.5 11.5,127.5 6.5,127.5C 5.53128,126.691 4.69794,125.691 4,124.5C 3.83059,118.141 3.33059,111.807 2.5,105.5C 1.48224,104.807 0.482236,104.141 -0.5,103.5C -0.5,98.8333 -0.5,94.1667 -0.5,89.5C 3.17372,87.7795 4.50705,84.7795 3.5,80.5C 2.16667,80.5 0.833333,80.5 -0.5,80.5C -0.5,73.1667 -0.5,65.8333 -0.5,58.5C 5.7922,46.7916 14.9589,43.7916 27,49.5C 29.2648,45.1401 28.7648,41.3068 25.5,38C 18.1545,38.7069 13.9878,35.5403 13,28.5C 9.21339,25.4507 8.54672,21.784 11,17.5C 19.2623,13.7999 22.929,16.4666 22,25.5C 17.0021,30.4459 18.1688,32.7792 25.5,32.5C 25.5,21.5 25.5,10.5 25.5,-0.5 Z M 30.5,8.5 C 52.5,8.5 74.5,8.5 96.5,8.5C 96.8315,17.5246 96.4982,26.5246 95.5,35.5C 90.5583,32.3373 85.225,31.6706 79.5,33.5C 74.32,31.5383 68.9867,30.205 63.5,29.5C 58.0133,30.205 52.68,31.5383 47.5,33.5C 41.775,31.6706 36.4417,32.3373 31.5,35.5C 30.5018,26.5246 30.1685,17.5246 30.5,8.5 Z M 15.5,20.5 C 17.6246,21.3676 17.7913,22.3676 16,23.5C 14.3167,22.8235 14.1501,21.8235 15.5,20.5 Z M 110.5,20.5 C 112.625,21.3676 112.791,22.3676 111,23.5C 109.317,22.8235 109.15,21.8235 110.5,20.5 Z M 57.5,35.5 C 58.5,35.5 59.5,35.5 60.5,35.5C 60.5,47.5 60.5,59.5 60.5,71.5C 59.5,71.5 58.5,71.5 57.5,71.5C 57.5,59.5 57.5,47.5 57.5,35.5 Z M 66.5,35.5 C 67.5,35.5 68.5,35.5 69.5,35.5C 69.5,47.5 69.5,59.5 69.5,71.5C 68.5,71.5 67.5,71.5 66.5,71.5C 66.5,59.5 66.5,47.5 66.5,35.5 Z M 37.5,37.5 C 43.6295,36.5548 47.2962,39.0548 48.5,45C 47.2961,51.1059 43.6294,53.4393 37.5,52C 32.2138,47.1687 32.2138,42.3354 37.5,37.5 Z M 83.5,37.5 C 91.1474,37.3133 94.3141,40.98 93,48.5C 87.9186,53.9865 83.2519,53.6531 79,47.5C 78.0769,43.0165 79.5769,39.6832 83.5,37.5 Z M 14.5,51.5 C 20.5441,51.2717 25.3774,53.6051 29,58.5C 32,63.8333 35,69.1667 38,74.5C 38.6667,78.8333 38.6667,83.1667 38,87.5C 29.7021,76.1184 18.5354,72.1184 4.5,75.5C 4.33407,70.4889 4.50074,65.4889 5,60.5C 6.87143,56.0064 10.0381,53.0064 14.5,51.5 Z M 51.5,51.5 C 52.4907,57.979 52.824,64.6457 52.5,71.5C 51.5,71.5 50.5,71.5 49.5,71.5C 49.3339,65.8236 49.5006,60.1569 50,54.5C 50.5133,53.4734 51.0133,52.4734 51.5,51.5 Z M 74.5,51.5 C 75.7899,52.0577 76.6232,53.0577 77,54.5C 77.4994,60.1569 77.6661,65.8236 77.5,71.5C 76.5,71.5 75.5,71.5 74.5,71.5C 74.5,64.8333 74.5,58.1667 74.5,51.5 Z M 106.5,51.5 C 113.784,50.9671 118.951,53.9671 122,60.5C 122.499,65.4889 122.666,70.4889 122.5,75.5C 108.465,72.1184 97.2979,76.1184 89,87.5C 88.3333,83.1667 88.3333,78.8333 89,74.5C 92,69.1667 95,63.8333 98,58.5C 100.441,55.5464 103.275,53.2131 106.5,51.5 Z M 34.5,56.5 C 37.7644,57.3242 41.0977,57.6576 44.5,57.5C 44.8266,62.2137 44.4933,66.8804 43.5,71.5C 40.0829,66.7497 37.0829,61.7497 34.5,56.5 Z M 92.5,56.5 C 89.9171,61.7497 86.9171,66.7497 83.5,71.5C 82.5067,66.8804 82.1734,62.2137 82.5,57.5C 85.9023,57.6576 89.2356,57.3242 92.5,56.5 Z M 43.5,76.5 C 56.8333,76.5 70.1667,76.5 83.5,76.5C 83.5,77.5 83.5,78.5 83.5,79.5C 70.1667,79.5 56.8333,79.5 43.5,79.5C 43.5,78.5 43.5,77.5 43.5,76.5 Z M 8.5,80.5 C 9.5,80.5 10.5,80.5 11.5,80.5C 11.5,82.8333 11.5,85.1667 11.5,87.5C 10.5,87.5 9.5,87.5 8.5,87.5C 8.5,85.1667 8.5,82.8333 8.5,80.5 Z M 16.5,80.5 C 17.5,80.5 18.5,80.5 19.5,80.5C 19.5,82.8333 19.5,85.1667 19.5,87.5C 18.5,87.5 17.5,87.5 16.5,87.5C 16.5,85.1667 16.5,82.8333 16.5,80.5 Z M 107.5,80.5 C 108.5,80.5 109.5,80.5 110.5,80.5C 110.5,82.8333 110.5,85.1667 110.5,87.5C 109.5,87.5 108.5,87.5 107.5,87.5C 107.5,85.1667 107.5,82.8333 107.5,80.5 Z M 115.5,80.5 C 116.5,80.5 117.5,80.5 118.5,80.5C 118.5,82.8333 118.5,85.1667 118.5,87.5C 117.5,87.5 116.5,87.5 115.5,87.5C 115.5,85.1667 115.5,82.8333 115.5,80.5 Z M 24.5,82.5 C 26.8863,83.3733 28.8863,84.8733 30.5,87C 28.5273,87.4955 26.5273,87.6621 24.5,87.5C 24.5,85.8333 24.5,84.1667 24.5,82.5 Z M 100.5,82.5 C 102.256,83.5521 102.923,85.2188 102.5,87.5C 100.473,87.6621 98.4727,87.4955 96.5,87C 98.0414,85.6288 99.3747,84.1288 100.5,82.5 Z M 43.5,84.5 C 56.8333,84.5 70.1667,84.5 83.5,84.5C 83.5,85.5 83.5,86.5 83.5,87.5C 70.1667,87.5 56.8333,87.5 43.5,87.5C 43.5,86.5 43.5,85.5 43.5,84.5 Z M 4.5,92.5 C 43.8333,92.5 83.1667,92.5 122.5,92.5C 122.5,95.1667 122.5,97.8333 122.5,100.5C 83.1667,100.5 43.8333,100.5 4.5,100.5C 4.5,97.8333 4.5,95.1667 4.5,92.5 Z M 8.5,105.5 C 9.5,105.5 10.5,105.5 11.5,105.5C 11.5,108.833 11.5,112.167 11.5,115.5C 13.1667,115.5 14.8333,115.5 16.5,115.5C 16.5,112.167 16.5,108.833 16.5,105.5C 17.5,105.5 18.5,105.5 19.5,105.5C 19.5,111.167 19.5,116.833 19.5,122.5C 18.5,122.5 17.5,122.5 16.5,122.5C 16.5,121.167 16.5,119.833 16.5,118.5C 14.8333,118.5 13.1667,118.5 11.5,118.5C 11.5,119.833 11.5,121.167 11.5,122.5C 10.5,122.5 9.5,122.5 8.5,122.5C 8.5,116.833 8.5,111.167 8.5,105.5 Z M 107.5,105.5 C 108.5,105.5 109.5,105.5 110.5,105.5C 110.5,108.833 110.5,112.167 110.5,115.5C 112.167,115.5 113.833,115.5 115.5,115.5C 115.5,112.167 115.5,108.833 115.5,105.5C 116.5,105.5 117.5,105.5 118.5,105.5C 118.5,111.167 118.5,116.833 118.5,122.5C 117.5,122.5 116.5,122.5 115.5,122.5C 115.5,121.167 115.5,119.833 115.5,118.5C 113.833,118.5 112.167,118.5 110.5,118.5C 110.5,119.833 110.5,121.167 110.5,122.5C 109.5,122.5 108.5,122.5 107.5,122.5C 107.5,116.833 107.5,111.167 107.5,105.5 Z"/></g>
</svg>
