<svg xmlns="http://www.w3.org/2000/svg" width="512" height="512" viewBox="0 0 512 512" version="1.1">
	<path d="M 169 99.136 C 125.725 103.568, 89.188 116.658, 71.877 133.931 C 64.539 141.253, 60.584 148.309, 52.504 168.500 C 49.862 175.100, 46.823 181.625, 45.750 183 L 43.799 185.500 46.378 185.814 C 47.797 185.987, 52.715 185.425, 57.307 184.564 C 68.214 182.521, 83.243 182.523, 89.248 184.569 C 91.780 185.432, 95.348 185.994, 97.176 185.819 C 99.979 185.550, 100.679 184.951, 101.642 182 C 103.378 176.679, 110.061 129.394, 109.199 128.532 C 108.963 128.297, 107.810 128.695, 106.635 129.417 C 105.461 130.139, 102.250 131.293, 99.500 131.981 C 96.750 132.669, 91.013 134.826, 86.750 136.774 L 79 140.315 78.811 146.908 L 78.622 153.500 78.258 147.663 C 77.963 142.922, 77.608 141.936, 76.366 142.413 C 75.525 142.736, 74.749 143, 74.642 143 C 74.535 143, 74.622 144.830, 74.835 147.066 C 75.048 149.303, 74.435 157.178, 73.473 164.566 L 71.724 178 68.782 178 C 65.996 178, 65.876 177.829, 66.500 174.750 C 66.862 172.963, 68.406 169.440, 69.931 166.923 C 72.262 163.073, 72.786 160.880, 73.228 153.132 L 73.753 143.920 71.627 145.452 C 66.892 148.862, 65.739 148.881, 69.487 145.488 C 73.955 141.443, 84.763 135.228, 92.861 132.047 C 103.175 127.996, 157.843 115, 164.568 115 C 165.301 115, 166.263 117.718, 166.957 121.750 C 167.596 125.463, 169.169 132.775, 170.451 138 C 171.734 143.225, 173.079 148.791, 173.440 150.368 C 173.802 151.945, 174.309 153.024, 174.567 152.766 C 174.826 152.507, 174.143 147.617, 173.050 141.898 C 171.958 136.179, 170.554 127.243, 169.932 122.040 C 168.830 112.817, 168.857 112.535, 171.011 110.790 C 173.719 108.597, 172.885 108.491, 168.950 110.526 C 167.326 111.365, 157.786 113.642, 147.749 115.585 C 106.511 123.567, 84.678 130.668, 74.158 139.521 C 68.536 144.251, 70.816 140.386, 77.055 134.610 C 92.347 120.452, 126.938 110.376, 170 107.535 C 174.675 107.227, 182.325 106.534, 187 105.995 C 215.315 102.731, 283.255 108.985, 307.814 117.115 C 311.287 118.265, 313.926 119.407, 313.680 119.654 C 313.433 119.900, 309.692 119.222, 305.366 118.146 C 293.799 115.270, 287.512 114.372, 255.569 111.028 C 211.061 106.369, 195.216 106.948, 182.842 113.683 C 173.704 118.656, 172.459 122.845, 174.572 141.500 C 178.849 179.265, 179.525 181, 189.958 181 C 198.546 181, 241.241 177.254, 249 175.819 C 256.290 174.471, 263.118 174.423, 270.439 175.668 C 275.313 176.496, 275.342 176.523, 272.689 177.732 C 271.210 178.406, 270 178.547, 270 178.046 C 270 177.176, 251.797 177.479, 248.878 178.398 C 246.345 179.196, 206.640 183.194, 195.861 183.737 C 190.010 184.032, 184.056 183.980, 182.629 183.622 C 179.155 182.750, 177.209 178.649, 175.940 169.526 C 175.362 165.370, 173.781 157.814, 172.427 152.735 C 171.073 147.656, 168.544 137.762, 166.807 130.750 C 163.736 118.355, 163.573 118, 160.955 118 C 153.667 118, 125.021 124.235, 121.205 126.651 C 119.943 127.451, 118.535 129.094, 118.076 130.302 C 116.869 133.480, 109.298 171.458, 108.517 178.250 C 108.154 181.412, 107.423 184, 106.894 184 C 105.790 184, 106.413 178.252, 109.114 163.500 C 115.318 129.621, 115.763 125.716, 113.092 128.567 C 112.374 129.333, 108.791 149.776, 104.122 179.750 L 103.304 185 114.318 185 C 120.377 185, 125.136 185.197, 124.895 185.439 C 124.653 185.680, 117.941 186.376, 109.978 186.985 C 98.937 187.829, 93.096 187.803, 85.373 186.873 C 77.280 185.898, 72.013 185.915, 59.145 186.957 L 43.043 188.261 41.099 191.557 C 38.337 196.237, 35.692 197.653, 24.546 200.414 C 18.760 201.847, 13.898 203.658, 12.748 204.807 C 11.673 205.883, 10.171 209.404, 9.412 212.632 C 7.941 218.885, 7.533 233.717, 8.778 235.675 C 9.189 236.322, 15.145 238.260, 22.013 239.983 C 52.708 247.683, 55.159 249.124, 54.889 259.315 L 54.779 263.500 53.481 258.177 C 52.767 255.249, 51.354 252.227, 50.341 251.460 C 46.224 248.343, 15.047 240, 7.517 240 C 4.516 240, 4.167 241.549, 7 242.290 C 8.100 242.577, 9 243.313, 9 243.925 C 9 244.608, 8.050 244.800, 6.542 244.421 C 4.175 243.827, 4.118 243.928, 5.020 247.152 C 6.265 251.600, 11.653 256.017, 22 261.075 C 31.443 265.690, 33 267.115, 33 271.140 C 33 274.249, 37.267 288.364, 39.510 292.672 L 40.982 295.500 32.897 296 L 24.812 296.500 37.108 301.308 C 43.870 303.952, 54.600 307.680, 60.952 309.591 C 67.303 311.503, 75.650 314.251, 79.500 315.697 C 89.143 319.321, 161.387 348.830, 202 365.735 C 242.171 382.456, 247.179 384.377, 257.410 386.984 C 268.171 389.727, 285.147 389.712, 299.699 386.949 C 330.496 381.100, 454.339 346.827, 461.948 342.047 C 463.519 341.060, 462.377 340.675, 454.500 339.538 C 452.300 339.220, 443.889 337.547, 435.809 335.819 L 421.117 332.677 425.309 330.014 C 427.614 328.549, 432.200 324.978, 435.500 322.078 C 442.871 315.602, 446.390 313.785, 456 311.493 C 465.831 309.150, 484.891 302.606, 492.698 298.894 C 502.714 294.132, 505.396 288.441, 501.011 281.250 C 498.550 277.213, 496.480 277.119, 486.176 280.575 C 477.097 283.620, 475.422 284.936, 474.522 289.733 C 473.583 294.739, 469.488 299.722, 464.077 302.443 C 457.446 305.777, 427.033 314.126, 403.818 318.986 C 394.043 321.032, 391.434 320.678, 387.227 316.737 L 384.953 314.608 375.727 316.803 C 358.305 320.950, 327.623 326.998, 323.156 327.167 C 319.416 327.309, 318.303 326.891, 316.343 324.612 C 311.067 318.479, 314.283 314.624, 326 313.033 C 336.554 311.599, 342 310.214, 342 308.961 C 342 307.689, 340.819 307.751, 325.009 309.859 L 311.518 311.657 298.509 309.230 C 291.354 307.896, 285.302 306.612, 285.060 306.378 C 284.817 306.144, 285.312 305.259, 286.159 304.412 C 287.546 303.026, 289.032 303.186, 301.083 306.020 L 314.467 309.167 327.220 307.547 C 334.235 306.656, 342.117 306.197, 344.737 306.526 C 347.840 306.917, 352.936 306.406, 359.360 305.063 C 373.888 302.023, 375.203 302.175, 380.942 307.543 L 385.799 312.085 405.649 307.473 C 416.567 304.937, 430.761 301.542, 437.192 299.931 C 443.622 298.319, 450.623 297, 452.750 297 C 454.877 297, 457.491 296.339, 458.559 295.532 C 460.372 294.161, 460.235 294.060, 456.500 294.016 C 454.300 293.991, 451.834 293.549, 451.021 293.034 C 449.050 291.788, 456.069 288.598, 477.157 281.155 C 486.065 278.011, 493.529 274.913, 493.743 274.272 C 494.027 273.420, 492.225 273.265, 487.074 273.697 L 480.016 274.289 475.102 269.692 C 469.414 264.372, 472.744 264.375, 443.500 269.659 C 433.050 271.548, 413.665 274.862, 400.422 277.024 C 373.597 281.404, 362.730 283.539, 360.099 284.947 C 359.127 285.467, 357.244 287.499, 355.915 289.461 C 352.851 293.988, 347.657 296.514, 336.419 298.942 C 321.495 302.165, 314.715 302.427, 303.889 300.197 C 288.708 297.069, 286.542 295.765, 278.167 284.720 C 274.169 279.448, 268.095 272.512, 264.668 269.306 C 252.552 257.972, 232.418 250.195, 222.267 252.928 C 213.524 255.282, 207.211 262.010, 198.017 278.770 C 193.479 287.042, 186.009 306.525, 185.994 310.127 C 185.991 310.882, 185.520 313.188, 184.947 315.250 C 184.137 318.168, 183.405 319, 181.649 319 C 178.947 319, 164.007 313.974, 147.500 307.513 C 135.744 302.911, 88.684 285.948, 78.185 282.528 C 75.262 281.575, 73.059 280.607, 73.290 280.376 C 73.521 280.146, 81.538 282.621, 91.105 285.877 C 107.469 291.446, 119.337 295.720, 152.268 307.906 C 159.840 310.708, 167.074 313, 168.344 313 C 171.556 313, 174.302 309.734, 179.330 299.934 C 186.197 286.552, 199.625 265.571, 205.295 259.368 C 208.309 256.069, 212.533 252.735, 215.346 251.431 L 220.198 249.183 214.849 248.100 C 210.405 247.200, 189.112 243.726, 173.750 241.394 C 170.923 240.964, 170 240.354, 170 238.912 C 170 237.727, 170.695 237, 171.826 237 C 176.480 237, 212.358 242.538, 233.581 246.533 C 249.748 249.575, 249.140 249.553, 262.500 247.609 C 277.794 245.384, 285.570 242.726, 292.344 237.410 C 295.455 234.969, 298 232.591, 298 232.128 C 298 231.664, 295.188 230.990, 291.750 230.630 C 279.585 229.356, 198.369 222.115, 189.500 221.514 C 173.460 220.428, 172.998 220.291, 173.015 216.662 C 173.035 212.436, 175.635 201.606, 177.493 198.013 C 178.696 195.686, 179.875 194.991, 183.553 194.440 C 186.536 193.992, 187.958 193.332, 187.652 192.537 C 186.637 189.890, 188.945 188.598, 195.432 188.185 C 200.986 187.832, 202 188.016, 202 189.384 C 202 190.595, 202.974 191, 205.889 191 C 219.026 191, 283.565 195.596, 290.096 196.996 C 294.920 198.031, 285.883 197.758, 257 195.997 C 239.158 194.909, 196.341 194.674, 197.336 195.669 C 197.704 196.037, 210.041 196.693, 224.752 197.127 C 250.925 197.900, 285.054 200.081, 302 202.064 C 313.007 203.352, 326.065 206.595, 333 209.763 L 338.500 212.276 335.010 213.351 C 330.490 214.744, 323.809 221.469, 320.544 227.912 C 318.182 232.575, 317.673 233, 314.452 233 C 308.570 233, 308.889 229.040, 315.316 222.250 C 318.154 219.251, 318.229 219, 316.285 219 C 313.703 219, 310.387 222.827, 305.687 231.233 C 301.273 239.124, 293.755 246.293, 286.220 249.795 C 281.022 252.210, 279.381 252.454, 268.250 252.476 C 261.512 252.489, 256.018 252.725, 256.041 253 C 256.064 253.275, 258.984 255.644, 262.530 258.265 C 269.127 263.141, 271.884 266.290, 282.681 281.290 C 286.157 286.121, 290.231 290.585, 291.993 291.496 C 296.841 294.003, 312.732 297.227, 320.500 297.279 C 333.639 297.368, 346.366 292.896, 352.127 286.165 C 357.940 279.373, 354.612 280.127, 437.281 266.887 L 470.062 261.636 474.815 266.318 C 479.740 271.169, 481.022 271.553, 488.288 270.352 C 490.452 269.994, 491.898 269.249, 491.663 268.613 C 491.436 268.001, 490.744 267.612, 490.125 267.750 C 488.732 268.060, 488.636 266.343, 490 265.500 C 491.696 264.452, 491.107 258.131, 488.913 253.829 L 486.825 249.737 489.290 245.119 C 490.645 242.578, 492.988 236.736, 494.497 232.136 C 500.133 214.952, 495.779 208.201, 474.500 201.124 C 463.802 197.567, 445.533 194.743, 415.440 191.997 C 392.460 189.900, 354.138 184.895, 345.500 182.863 C 342.750 182.216, 339.150 181.087, 337.500 180.354 C 334.743 179.129, 335.035 179.071, 341.114 179.635 C 348.700 180.339, 349.843 179.531, 347.547 175.090 C 346.377 172.829, 345.385 172.167, 343.380 172.311 C 340.945 172.486, 340.128 171.304, 332.456 156.500 C 323.073 138.394, 321.042 132.764, 322.847 129.873 C 323.764 128.406, 323.717 127.275, 322.635 124.745 C 316.870 111.271, 289.456 103.767, 228.605 99.008 C 213.467 97.825, 181.130 97.894, 169 99.136 M 257.022 121.050 C 257.034 121.847, 257.915 124.419, 258.979 126.764 C 260.044 129.109, 261.209 132.596, 261.569 134.514 C 262.208 137.921, 262.331 138, 267.030 138 C 273.367 138, 275 137.268, 275 134.428 C 275 131.360, 272.306 130, 266.226 130 C 261.330 130, 261.317 129.991, 259.986 125.750 C 258.540 121.142, 256.986 118.678, 257.022 121.050 M 162.180 125.750 C 160.296 133.620, 153.984 164.823, 152.862 171.808 C 151.883 177.902, 151.921 179.337, 153.094 180.444 C 154.954 182.200, 177.007 183.295, 176.985 181.630 C 176.954 179.347, 175.484 178.082, 173.974 179.037 C 171.952 180.316, 161.985 180.239, 158.190 178.916 C 153.019 177.114, 153.035 176.735, 159.368 149.856 C 162.728 135.595, 164.820 122, 163.655 122 C 163.337 122, 162.673 123.688, 162.180 125.750 M 241.750 132.080 C 239.715 133.266, 239.445 136.317, 241.250 137.742 C 241.970 138.310, 246.207 138.521, 251.250 138.239 C 260.463 137.723, 261.241 137.188, 258.965 132.934 C 258.086 131.291, 256.843 131.005, 250.715 131.030 C 246.747 131.047, 242.713 131.519, 241.750 132.080 M 312 137.564 C 312 139.524, 313.153 143.650, 314.563 146.732 C 315.973 149.813, 318.300 157.040, 319.735 162.791 L 322.343 173.247 328.250 172.711 C 331.500 172.416, 334.353 171.980, 334.592 171.741 C 334.831 171.502, 331.850 164.375, 327.968 155.903 C 324.086 147.432, 320.262 139.037, 319.471 137.250 C 318.307 134.620, 317.457 134, 315.016 134 C 312.225 134, 312 134.266, 312 137.564 M 295.794 136.728 C 290.455 137.510, 278.980 139.833, 270.294 141.889 L 254.500 145.628 254.179 150.064 C 254.002 152.504, 254.589 158.569, 255.484 163.542 L 257.110 172.584 265.805 169.575 C 273.601 166.878, 275.771 166.564, 286.786 166.534 C 296.651 166.507, 299.255 166.795, 300.003 168 C 300.810 169.300, 298.907 169.572, 285.717 170.042 C 272.239 170.521, 265 171.741, 265 173.532 C 265 174.308, 307.323 172.930, 308.134 172.127 C 308.938 171.332, 307.053 136.707, 306.162 135.903 C 305.798 135.575, 301.132 135.946, 295.794 136.728 M 237.113 148.589 C 218.625 152.471, 212.581 157.308, 209.416 170.750 C 208.217 175.846, 208.244 176, 210.340 175.985 C 216.002 175.947, 247.431 173.902, 247.785 173.549 C 248.355 172.979, 244.887 148.631, 244.128 147.874 C 243.782 147.529, 240.626 147.851, 237.113 148.589 M 313 158.642 C 313 171.949, 313.939 174.789, 317.919 173.526 C 319.912 172.893, 320.105 172.363, 319.520 169.153 C 318.761 165, 313.952 147.717, 313.378 147.083 C 313.170 146.854, 313 152.056, 313 158.642 M 93.500 150.487 C 86.311 152.437, 79.774 155.435, 77.733 157.718 C 76.421 159.186, 75.802 162.200, 75.327 169.435 L 74.687 179.175 84.093 178.544 C 89.267 178.197, 94.872 177.704, 96.550 177.449 L 99.600 176.984 101.818 164.742 C 103.039 158.009, 104.029 151.713, 104.018 150.750 C 103.996 148.614, 100.712 148.532, 93.500 150.487 M 118.811 150.172 C 116.983 151.609, 115.472 158.815, 114.398 171.223 C 113.729 178.944, 113.730 178.947, 116.430 179.973 C 117.915 180.538, 125.578 181, 133.458 181 C 145.858 181, 147.871 180.778, 148.420 179.348 C 149.532 176.450, 151.984 151.582, 151.228 150.878 C 150.827 150.505, 143.750 149.895, 135.500 149.522 C 123.730 148.990, 120.136 149.130, 118.811 150.172 M 162.142 153.750 C 158.307 160.974, 156.690 175.283, 159.582 176.393 C 162.575 177.542, 168.559 176.997, 170.891 175.364 C 173.056 173.848, 173.177 173.278, 172.543 167.614 C 172.166 164.251, 171.402 159.363, 170.846 156.750 C 169.881 152.219, 169.678 152, 166.452 152 C 164.252 152, 162.746 152.611, 162.142 153.750 M 63.868 158.379 C 59.014 164.874, 57.002 168.549, 57.017 170.890 C 57.029 172.863, 58.132 171.453, 61.540 165.106 C 66.082 156.646, 66.874 154.357, 63.868 158.379 M 181.175 164.249 C 184.044 176.570, 184.473 177.003, 193.773 176.985 C 198.023 176.976, 202.006 176.639, 202.624 176.235 C 203.243 175.831, 204.048 174.120, 204.413 172.434 C 205.605 166.938, 200.173 162.360, 187.142 157.877 C 178.874 155.032, 178.998 154.900, 181.175 164.249 M 296.500 176.902 L 281.500 177.500 291 178.258 C 296.225 178.674, 306.448 179.124, 313.717 179.258 C 324.845 179.462, 326.719 179.286, 325.575 178.143 C 323.883 176.455, 316.070 176.121, 296.500 176.902 M 285.500 185.045 C 279.450 185.483, 271.575 186.185, 268 186.605 L 261.500 187.369 271 188.581 C 286.214 190.523, 315.375 196.737, 330 201.154 C 348.928 206.870, 357.148 211.015, 364.527 218.564 L 370.555 224.729 381.984 222.374 C 401.411 218.371, 404.087 216.823, 402.083 210.750 C 400.728 206.645, 394.971 200.948, 389.323 198.123 C 383.342 195.132, 370.578 191.817, 367.762 192.524 C 366.444 192.854, 361.346 192.443, 356.433 191.609 C 351.520 190.776, 340.750 189.397, 332.500 188.546 C 314.143 186.653, 310.811 186.115, 311.415 185.138 C 312.048 184.114, 299.017 184.067, 285.500 185.045 M 55 189.458 C 52.525 190.252, 48.814 191.168, 46.752 191.495 C 43.892 191.949, 42.632 192.811, 41.429 195.138 C 40.562 196.814, 40.100 198.433, 40.402 198.736 C 40.705 199.038, 43.480 198.778, 46.569 198.158 C 49.794 197.510, 52.892 197.391, 53.843 197.878 C 54.754 198.344, 57.460 199.025, 59.855 199.392 C 68.689 200.742, 75.049 205.749, 80.689 215.796 C 84.304 222.235, 86.241 223.220, 86.835 218.922 C 87.383 214.951, 89 214.219, 89 217.941 L 89 221.282 102.250 220.450 C 109.537 219.992, 127.275 219.591, 141.667 219.559 C 156.058 219.527, 168.120 219.213, 168.470 218.863 C 168.820 218.513, 170.198 214.013, 171.532 208.863 C 172.866 203.713, 174.245 198.488, 174.595 197.250 L 175.233 195 156.367 194.843 C 134.890 194.664, 141.329 193.344, 164.750 193.124 C 175.473 193.024, 178 192.729, 178 191.579 C 178 190.798, 176.762 189.905, 175.250 189.595 C 173.738 189.285, 153.825 189.009, 131 188.982 C 108.175 188.956, 82.750 188.727, 74.500 188.475 C 63.141 188.127, 58.408 188.366, 55 189.458 M 320.269 191.693 C 321.242 191.947, 322.592 191.930, 323.269 191.656 C 323.946 191.382, 323.150 191.175, 321.500 191.195 C 319.850 191.215, 319.296 191.439, 320.269 191.693 M 327.250 192.689 C 328.212 192.941, 329.788 192.941, 330.750 192.689 C 331.712 192.438, 330.925 192.232, 329 192.232 C 327.075 192.232, 326.288 192.438, 327.250 192.689 M 395.046 193.843 C 398.646 194.851, 403.670 196.894, 406.210 198.383 C 411.797 201.657, 418.629 208.868, 420.590 213.560 C 422.184 217.376, 424.801 218.056, 427.501 215.356 C 430.501 212.356, 427.373 205.580, 420.980 201.230 C 416.782 198.373, 400.117 193.054, 393.500 192.459 L 388.500 192.009 395.046 193.843 M 91.593 195.822 C 90.786 199.246, 91.419 201.077, 92.841 199.433 C 93.285 198.920, 93.362 197.150, 93.012 195.500 L 92.375 192.500 91.593 195.822 M 337.500 194.046 C 344.369 195.116, 350.079 195.031, 344 193.949 C 341.525 193.509, 337.925 193.175, 336 193.208 C 333.138 193.256, 333.411 193.409, 337.500 194.046 M 425.500 196.867 C 438.948 200.733, 447.182 207.542, 449.501 216.713 C 450.689 221.415, 450.786 221.506, 454.993 221.814 L 459.275 222.128 458.754 217.513 C 458.316 213.620, 458.490 212.947, 459.867 213.209 C 461.085 213.440, 461.577 214.868, 461.804 218.822 C 462.079 223.611, 462.318 224.095, 464.270 223.812 C 465.459 223.641, 467.427 221.925, 468.645 220 C 472.617 213.718, 476.359 209.771, 479.320 208.739 C 482.135 207.757, 481.994 207.651, 474.863 205.381 C 465.740 202.475, 452.570 199.715, 435.104 197.047 C 419.149 194.609, 417.539 194.579, 425.500 196.867 M 29.500 202.032 C 18.357 203.702, 16.893 204.107, 14.944 206.056 C 13.875 207.125, 13 208.338, 13 208.750 C 13 209.162, 20.762 209.500, 30.250 209.500 C 46.421 209.500, 47.693 209.638, 50.584 211.700 C 54.611 214.572, 58.615 222.303, 64.984 239.500 C 71.365 256.731, 78.716 272.377, 82.563 276.917 C 86.188 281.195, 91.642 283.665, 121.058 294.350 C 134.015 299.057, 150.085 304.954, 156.769 307.454 C 169.299 312.141, 171 312.586, 171 311.172 C 171 310.414, 133.211 296.176, 108.035 287.449 C 93.887 282.545, 90.454 280.644, 87.393 276.018 C 84.535 271.699, 78.154 255.045, 70.144 231 C 64.175 213.082, 60.368 205.771, 55.742 203.339 C 51.915 201.328, 38.619 200.666, 29.500 202.032 M 87.180 206.250 C 87.407 207.844, 88.281 208.590, 90.180 208.810 C 92.401 209.066, 92.829 209.580, 92.680 211.810 C 92.411 215.829, 95.415 215.374, 95.807 211.336 C 96.096 208.360, 96.408 208.132, 101.057 207.492 C 104.315 207.044, 106 206.333, 106 205.406 C 106 204.296, 103.986 204, 96.430 204 C 87.078 204, 86.868 204.051, 87.180 206.250 M 341.635 209.745 C 345.559 211.881, 350.207 214.837, 351.962 216.314 C 355.251 219.082, 357 219.692, 357 218.073 C 357 215.300, 344.010 207.447, 337.676 206.391 C 335.251 205.986, 336.187 206.779, 341.635 209.745 M 14.667 215.667 C 14.300 216.033, 14.052 217.946, 14.115 219.917 L 14.230 223.500 15.010 219.500 C 15.829 215.298, 15.763 214.570, 14.667 215.667 M 479.132 218.360 C 477.913 219.658, 476.822 222.020, 476.707 223.610 C 476.500 226.498, 476.505 226.500, 482 226.260 C 489.753 225.923, 490.135 225.687, 488.860 222.030 C 487.809 219.013, 484.606 216, 482.452 216 C 481.845 216, 480.351 217.062, 479.132 218.360 M 121.130 231.532 C 134.126 233.943, 149.138 236.830, 154.491 237.948 C 159.844 239.066, 164.623 239.733, 165.112 239.431 C 167.076 238.217, 165.813 236.189, 162.750 235.638 C 153.972 234.061, 102.406 227.009, 100.120 227.074 C 98.679 227.115, 108.133 229.121, 121.130 231.532 M 333.360 228.460 C 330.842 230.224, 328.550 235.386, 329.355 237.482 C 329.813 238.676, 331.766 239, 338.500 239 C 347.827 239, 349.191 238.165, 346.952 233.828 C 343.579 227.296, 338.108 225.135, 333.360 228.460 M 427.432 230.611 C 424.168 232.826, 423.285 233.035, 421.611 231.989 C 418.824 230.249, 414 228.977, 414 229.983 C 414 231.145, 422.090 237, 423.694 237 C 425.200 237, 433 230.197, 433 228.884 C 433 227.401, 431.457 227.879, 427.432 230.611 M 478.500 229.850 C 476.259 230.343, 475.432 231.140, 475.229 233.005 C 474.894 236.098, 478.405 242, 480.581 242 C 485.236 242, 490.666 235.735, 489.830 231.329 C 489.449 229.320, 484.094 228.621, 478.500 229.850 M 328.889 243.750 C 328.260 248.017, 330.787 254.037, 334.217 256.439 C 337.712 258.888, 340.872 258.328, 344.600 254.600 C 347.361 251.839, 348 250.429, 348 247.100 L 348 243 338.500 243 C 333.275 243, 328.950 243.338, 328.889 243.750 M 315 250.352 C 315 255.566, 317.989 260.506, 322.868 263.355 L 326.230 265.318 322.724 260.726 C 320.797 258.200, 318.635 253.854, 317.921 251.067 C 316.327 244.849, 315 244.524, 315 250.352 M 441.536 247.656 C 436.055 248.448, 431.357 249.310, 431.095 249.571 C 430.833 249.833, 431.323 250.752, 432.184 251.613 C 433.604 253.033, 434.685 253.029, 443.849 251.572 C 458.321 249.271, 467.741 249.187, 471.750 251.321 C 476.612 253.909, 475.667 252.379, 470.304 248.978 C 466.170 246.356, 464.764 246.013, 458.554 246.108 C 454.674 246.168, 447.016 246.864, 441.536 247.656 M 175.596 250.844 C 175.270 251.373, 176.239 252.253, 177.751 252.800 C 179.263 253.348, 181.287 254.115, 182.250 254.505 C 183.468 254.999, 184 254.744, 184 253.666 C 184 251.807, 183.447 251.438, 179.345 250.559 C 177.609 250.187, 175.923 250.315, 175.596 250.844 M 406.500 250.675 C 363.815 256.008, 352.482 261.263, 343.982 279.661 C 340.826 286.492, 339.560 288.187, 336.349 289.881 C 334.232 290.998, 332.950 291.927, 333.500 291.946 C 334.050 291.966, 336.888 290.612, 339.806 288.938 C 343.501 286.819, 345.930 284.487, 347.806 281.258 C 354.673 269.436, 363.782 263.203, 378 260.596 C 382.675 259.738, 394.600 257.884, 404.500 256.475 C 425.804 253.442, 425.646 253.483, 423.990 251.488 C 422.789 250.041, 414.613 249.661, 406.500 250.675 M 190 253.441 C 190 255.416, 191.305 256.055, 193.048 254.934 C 194.312 254.121, 194.305 253.872, 193 253.015 C 190.899 251.636, 190 251.764, 190 253.441 M 481.557 257.223 C 479.614 259.996, 479.571 262.399, 481.436 263.947 C 484.763 266.708, 489.826 259.905, 486.989 256.487 C 485.245 254.386, 483.365 254.640, 481.557 257.223 M 179 256.931 C 179.825 257.380, 183.875 258.008, 188 258.327 C 192.859 258.702, 194.444 258.607, 192.500 258.056 C 188.294 256.864, 177.175 255.937, 179 256.931 M 180.814 266.981 C 180.150 271.323, 180.401 272.932, 181.563 271.771 C 181.872 271.461, 181.985 269.249, 181.813 266.854 L 181.500 262.500 180.814 266.981 M 39 277.311 C 39 282.441, 42.644 289.764, 46.080 291.541 C 51.336 294.259, 54.690 292.915, 58.649 286.501 L 60.500 283.503 57.615 285.751 C 54.150 288.453, 48.978 288.680, 46.274 286.250 C 45.202 285.288, 43.495 282.475, 42.479 280 C 39.895 273.703, 39 273.012, 39 277.311 M 43.296 276.500 C 44.858 282.232, 45.254 283, 46.649 283 C 47.869 283, 47.726 282.273, 45.908 279.250 C 43.031 274.467, 42.626 274.040, 43.296 276.500 M 323.573 276.570 C 319.166 280.977, 321.561 288.374, 327.213 287.809 C 331.048 287.426, 334.519 283.211, 333.540 280.126 C 331.988 275.237, 326.769 273.374, 323.573 276.570 M 487.614 282.994 C 482.726 284.562, 478.166 286.442, 477.480 287.172 C 476.794 287.902, 475.942 290.153, 475.586 292.173 C 475.054 295.188, 475.264 295.949, 476.758 296.423 C 480.553 297.628, 499.315 291.227, 500.419 288.352 C 501.056 286.690, 498.523 279.962, 497.301 280.072 C 496.860 280.112, 492.501 281.427, 487.614 282.994 M 240.564 285.102 C 234.623 286.527, 230.139 290.527, 226.970 297.228 C 221.194 309.441, 221.051 322.121, 226.527 336.668 C 231.841 350.787, 242.244 363.259, 250.859 365.840 C 261.868 369.138, 273.621 359.713, 279.477 342.889 C 282.401 334.489, 282.497 330.793, 279.593 338.395 C 277.462 343.976, 270.611 351.847, 266.327 353.637 C 261.455 355.672, 253.340 355.374, 249.530 353.019 C 247.767 351.929, 244.212 348.349, 241.630 345.062 C 229.075 329.082, 226.165 311, 233.735 296 C 241.974 279.675, 262.425 284.711, 272.122 305.453 C 273.677 308.779, 275.358 313.975, 275.858 317 C 276.527 321.052, 276.797 321.636, 276.883 319.218 C 277.030 315.107, 273.696 305.062, 270.509 300.014 C 263.271 288.548, 251.218 282.546, 240.564 285.102 M 446 301.187 C 438.554 303.330, 400.587 311.986, 395.919 312.605 C 390.970 313.262, 389.705 314.289, 392.518 315.369 C 396.957 317.072, 452 303.289, 452 300.474 C 452 299.795, 450.022 300.030, 446 301.187 M 250.245 303.493 C 243.440 306.451, 239.616 314.216, 243.200 317.800 C 244.685 319.285, 269.580 319.488, 270.486 318.023 C 271.604 316.213, 268.940 309.001, 265.854 305.487 C 263.167 302.427, 262.224 302.005, 258.146 302.039 C 255.591 302.061, 252.035 302.715, 250.245 303.493 M 239 333.435 C 239 338.740, 247.296 348.590, 252.603 349.585 C 257.373 350.480, 262.589 349.297, 265.295 346.705 C 266.562 345.492, 266.741 345.175, 265.694 346 C 264.553 346.899, 261.697 347.500, 258.567 347.500 C 252.190 347.500, 247.288 344.205, 242.712 336.843 C 239.481 331.646, 239 331.204, 239 333.435" stroke="none" fill="black" fill-rule="evenodd"/>
</svg>