<?xml version="1.0" encoding="UTF-8"?>
<!DOCTYPE svg PUBLIC "-//W3C//DTD SVG 1.1//EN" "http://www.w3.org/Graphics/SVG/1.1/DTD/svg11.dtd">
<svg xmlns="http://www.w3.org/2000/svg" version="1.1" width="128px" height="128px" style="shape-rendering:geometricPrecision; text-rendering:geometricPrecision; image-rendering:optimizeQuality; fill-rule:evenodd; clip-rule:evenodd" xmlns:xlink="http://www.w3.org/1999/xlink">
<g><path style="opacity:0.792" fill="#000000" d="M 127.5,62.5 C 127.5,67.8333 127.5,73.1667 127.5,78.5C 124.983,81.4113 121.649,82.9113 117.5,83C 110.967,90.112 104.301,90.2786 97.5,83.5C 76.1745,82.3336 54.8411,82.1669 33.5,83C 27.6612,89.1085 21.3279,89.7752 14.5,85C 12.7342,82.904 11.4009,80.5707 10.5,78C 6.50941,77.5908 2.84274,76.4241 -0.5,74.5C -0.5,67.5 -0.5,60.5 -0.5,53.5C 11.4963,50.181 23.163,45.681 34.5,40C 45.8333,39.3333 57.1667,39.3333 68.5,40C 78.285,44.0589 87.9516,48.3923 97.5,53C 105.414,52.9643 113.081,54.2976 120.5,57C 123.266,58.371 125.599,60.2043 127.5,62.5 Z M 44.5,44.5 C 45.2506,43.4265 46.2506,43.2599 47.5,44C 50.538,46.7026 53.2046,49.7026 55.5,53C 54.5,53.6667 53.5,53.6667 52.5,53C 49.9329,49.997 47.2663,47.1637 44.5,44.5 Z M 54.5,44.5 C 59.0317,43.4674 63.6984,43.634 68.5,45C 74.2874,47.3935 79.9541,50.0602 85.5,53C 77.8333,53.6667 70.1667,53.6667 62.5,53C 59.9329,49.997 57.2663,47.1637 54.5,44.5 Z M 35.5,44.5 C 36.552,44.3505 37.552,44.5172 38.5,45C 41.9336,49.1896 45.6002,53.1896 49.5,57C 69.5248,57.1337 89.5248,57.8004 109.5,59C 111.878,59.5112 114.212,60.1779 116.5,61C 116.616,65.613 118.949,67.4463 123.5,66.5C 123.5,67.5 123.5,68.5 123.5,69.5C 121.396,69.7989 119.396,69.4656 117.5,68.5C 113.535,63.8784 108.535,62.3784 102.5,64C 100.208,65.2899 98.208,66.9565 96.5,69C 93.9973,69.1294 91.9973,70.1294 90.5,72C 92.4032,73.4473 94.0699,75.114 95.5,77C 75.5028,77.5 55.5028,77.6666 35.5,77.5C 35.6602,75.8008 35.4935,74.1341 35,72.5C 33.6667,71.1667 32.3333,71.1667 31,72.5C 30.5349,82.5714 26.0349,85.2381 17.5,80.5C 14.5619,76.0776 15.2286,72.2443 19.5,69C 22.8168,68.5017 26.1501,68.335 29.5,68.5C 29.7733,66.549 29.1066,65.049 27.5,64C 18.9152,61.8743 13.4152,65.0409 11,73.5C 9.26631,72.7511 7.43298,72.2511 5.5,72C 4.34183,70.9914 3.67516,69.6581 3.5,68C 5.1865,65.327 6.51983,62.4937 7.5,59.5C 6.16667,59.5 4.83333,59.5 3.5,59.5C 3.36007,57.8762 4.02674,56.7096 5.5,56C 16.0834,53.5357 26.0834,49.7024 35.5,44.5 Z M 48.5,67.5 C 50.7949,66.0719 52.7949,66.5719 54.5,69C 52.1599,69.7484 50.1599,69.2484 48.5,67.5 Z M 103.5,68.5 C 112.33,67.1621 115.83,70.8288 114,79.5C 107.325,85.4288 102.492,84.0955 99.5,75.5C 100.071,72.6873 101.404,70.354 103.5,68.5 Z M 119.5,74.5 C 120.873,74.3433 122.207,74.51 123.5,75C 122.692,76.7058 121.359,77.5391 119.5,77.5C 119.5,76.5 119.5,75.5 119.5,74.5 Z"/></g>
<g><path style="opacity:0.76" fill="#000000" d="M 41.5,61.5 C 45.8461,61.3343 50.1794,61.501 54.5,62C 56.8745,64.039 58.8745,66.3723 60.5,69C 69.4938,69.4998 78.4938,69.6664 87.5,69.5C 87.7733,71.451 87.1066,72.951 85.5,74C 73.8333,74.6667 62.1667,74.6667 50.5,74C 45.9425,71.7607 42.6092,68.2607 40.5,63.5C 40.8627,62.8165 41.1961,62.1499 41.5,61.5 Z M 48.5,67.5 C 50.1599,69.2484 52.1599,69.7484 54.5,69C 52.7949,66.5719 50.7949,66.0719 48.5,67.5 Z"/></g>
<g><path style="opacity:0.75" fill="#000000" d="M 20.5,71.5 C 25.5011,70.6714 27.6678,72.6714 27,77.5C 24.497,81.2901 21.8303,81.2901 19,77.5C 18.5906,75.3049 19.0906,73.3049 20.5,71.5 Z"/></g>
<g><path style="opacity:0.751" fill="#000000" d="M 104.5,71.5 C 110.487,70.9773 112.487,73.4773 110.5,79C 106.656,80.9181 103.99,79.7514 102.5,75.5C 103.18,74.1401 103.847,72.8068 104.5,71.5 Z"/></g>
</svg>
