<svg xmlns="http://www.w3.org/2000/svg" width="512" height="512" viewBox="0 0 512 512" version="1.1">
	<path d="M 280 164.851 C 278.625 165.285, 267.825 165.443, 256 165.202 C 225.152 164.571, 202.254 166.662, 180 172.140 C 163.145 176.289, 157.912 179.704, 135.117 201.430 C 128.439 207.793, 122.808 213, 122.602 213 C 122.397 213, 120.940 212.328, 119.364 211.506 C 112.469 207.910, 98.780 211.658, 95.477 218.045 C 93.613 221.648, 94.128 227.032, 96.526 229.022 C 98.925 231.013, 98.284 231.484, 92.750 231.797 C 84.945 232.238, 65.693 236.736, 55.824 240.424 C 36.863 247.510, 27.364 256.227, 18.147 275 L 12.500 286.500 12.142 298.356 C 11.899 306.370, 12.370 314.148, 13.593 322.356 C 14.588 329.035, 15.269 335.850, 15.107 337.500 C 14.944 339.150, 14.741 342.706, 14.655 345.403 L 14.500 350.306 24.597 358.017 L 34.694 365.728 24.097 366.614 C 18.158 367.110, 13.584 367.932, 13.690 368.483 C 14.516 372.743, 92.128 379.888, 172.500 383.103 C 225.601 385.227, 256.578 384.010, 392.500 374.455 C 472.204 368.852, 500.735 366.309, 499.302 364.935 C 498.344 364.016, 478.964 362, 471.076 361.999 L 465.500 361.998 469.729 359.905 C 481.211 354.222, 488.131 338.046, 488.085 317 C 488.067 308.765, 488.519 305.245, 490.179 300.681 C 492.226 295.053, 492.243 294.609, 490.702 287.181 C 489.826 282.956, 488.627 277.022, 488.037 273.994 C 487.448 270.966, 486.237 267.141, 485.346 265.494 C 481.106 257.657, 477.117 248.868, 474.918 242.516 C 472.986 236.935, 471.222 234.174, 466.139 228.776 C 461.030 223.351, 459.900 221.576, 460.396 219.761 C 461.397 216.100, 463.601 213.919, 466.518 213.703 C 468.863 213.529, 469.444 214.057, 470.642 217.456 C 472.393 222.418, 474.963 225.176, 480.616 228.157 C 485.820 230.902, 486.576 230.338, 487.522 223 C 488.095 218.550, 490.479 210.514, 493.072 204.288 C 493.808 202.522, 494.152 200.819, 493.838 200.505 C 493.523 200.190, 472.169 199.668, 446.383 199.344 L 399.500 198.756 395.500 195.026 C 377.211 177.975, 361.789 170.721, 334.822 166.486 C 323.546 164.715, 284.150 163.540, 280 164.851 M 305.893 173.419 C 305.560 173.764, 282.385 174.698, 254.393 175.493 C 206.553 176.853, 183.140 178.146, 175 179.879 C 173.075 180.289, 200.802 180.423, 236.615 180.177 L 301.730 179.730 303.940 181.940 C 306.584 184.584, 306.531 185.069, 300.999 209 C 296.576 228.134, 295.603 231, 293.525 231 C 292.686 231, 292 231.512, 292 232.138 C 292 233.269, 292.780 233.244, 317.250 231.321 C 321.512 230.986, 325 230.291, 325 229.777 C 325 229.262, 323.762 229.082, 322.250 229.377 C 315.705 230.653, 304.219 231.163, 303.627 230.205 C 302.970 229.142, 314.247 183.417, 315.465 182.206 C 316.910 180.768, 349.381 181.651, 360.618 183.434 C 366.733 184.404, 372.583 185.033, 373.618 184.831 C 375.822 184.402, 358.895 177.713, 349.700 175.380 C 343.387 173.778, 307.115 172.154, 305.893 173.419 M 278.250 189.732 C 270.962 189.911, 265 190.425, 265 190.874 C 265 191.323, 265.953 192.547, 267.119 193.595 C 268.284 194.643, 271.248 198.313, 273.706 201.750 L 278.176 208 286.529 208 C 291.123 208, 295.118 207.618, 295.407 207.151 C 296.603 205.215, 298.258 191.859, 297.404 191.025 C 295.971 189.624, 292.404 189.384, 278.250 189.732 M 328.045 189.747 C 323.944 189.939, 320.008 190.578, 319.298 191.168 C 317.925 192.307, 314 204.013, 314 206.967 C 314 208.551, 315.649 208.777, 330.750 209.271 C 355.501 210.080, 365.846 213.250, 369.343 221.098 C 370.386 223.439, 370.821 223.609, 373.750 222.819 C 377.679 221.760, 377.888 219.895, 375.014 211.540 C 371.260 200.631, 366.052 190.970, 363.374 189.952 C 361.019 189.057, 344.791 188.962, 328.045 189.747 M 371 189.224 C 371 189.517, 372.557 192.344, 374.460 195.504 C 377.564 200.658, 384 215.853, 384 218.026 C 384 218.497, 384.424 219.144, 384.943 219.465 C 386.678 220.537, 381.906 205.614, 378.351 198.848 C 375.367 193.170, 371 187.452, 371 189.224 M 170.133 195.030 C 167.622 196.083, 153.756 209.688, 142.901 221.750 L 136.377 229 194.439 228.845 C 228.083 228.755, 248.925 228.377, 244 227.944 C 239.325 227.534, 226.007 227.154, 214.404 227.099 C 188.981 226.980, 173.620 226.055, 176.901 224.841 C 179.077 224.036, 198.749 221.884, 219.500 220.181 C 228.791 219.419, 229.287 219.272, 226.502 218.111 C 221.502 216.026, 219.999 214.057, 220.006 209.595 C 220.010 207.343, 220.685 204.211, 221.506 202.636 C 222.328 201.060, 223 199.646, 223 199.493 C 223 197.084, 174.919 193.026, 170.133 195.030 M 388.383 199.257 C 389.749 201.049, 391.909 204.761, 393.184 207.507 C 395.232 211.922, 395.818 212.463, 398.250 212.184 C 399.762 212.010, 401 211.554, 401 211.170 C 401 209.288, 393.489 199.659, 390.688 197.951 C 386.147 195.182, 385.538 195.527, 388.383 199.257 M 407.441 204.432 C 408.985 205.679, 412.154 206.006, 422.941 206.031 C 430.399 206.048, 441.900 206.748, 448.500 207.586 C 469.058 210.195, 469.698 210.243, 467.772 209.021 C 465.020 207.276, 437.922 204.032, 421 203.423 C 406.817 202.912, 405.665 202.997, 407.441 204.432 M 478.500 205.738 C 474.090 206.383, 473 207.747, 473 212.624 C 473 216.440, 473.529 217.516, 477.121 221.001 C 482.039 225.774, 483.149 225.993, 482.357 222.035 C 481.506 217.779, 482.681 212.748, 485.496 208.601 L 487.940 205 484.720 205.150 C 482.949 205.232, 480.150 205.497, 478.500 205.738 M 429.667 211.667 C 428.516 212.817, 428.938 214, 430.500 214 C 431.325 214, 432 213.325, 432 212.500 C 432 210.938, 430.817 210.516, 429.667 211.667 M 439.123 213.629 C 438.464 215.075, 438.054 216.388, 438.213 216.546 C 438.596 216.929, 448.947 221, 449.537 221 C 449.792 221, 450 218.750, 450 216 L 450 211 445.161 211 C 440.905 211, 440.176 211.317, 439.123 213.629 M 401.726 217.012 C 396.901 218.647, 391.241 220.857, 389.149 221.924 C 387.057 222.991, 381.833 224.764, 377.541 225.864 C 370.329 227.712, 366.985 229.318, 368.077 230.411 C 368.563 230.896, 380.015 228.298, 389.500 225.550 C 397.848 223.131, 416 215.767, 416 214.799 C 416 213.218, 410.339 214.096, 401.726 217.012 M 103.625 216.447 C 95.928 219.234, 96.275 221.370, 104.605 222.472 C 110.366 223.235, 113.352 221.469, 112.803 217.625 C 112.423 214.959, 108.961 214.515, 103.625 216.447 M 339.500 217.064 C 336.379 217.983, 331 222.386, 331 224.021 C 331 224.539, 332.093 225.236, 333.429 225.572 C 336.314 226.296, 363.660 224.673, 364.612 223.721 C 365.978 222.356, 362.049 218.331, 358.234 217.188 C 353.693 215.828, 343.919 215.763, 339.500 217.064 M 416.500 220.078 C 414.300 220.613, 410.667 221.745, 408.427 222.593 C 406.187 223.442, 401.943 224.672, 398.996 225.326 L 393.637 226.516 401.068 230.194 C 405.156 232.217, 409.496 234.802, 410.713 235.940 C 413.782 238.809, 415.316 245.265, 414.517 251.945 C 413.058 264.142, 403.785 294.803, 396.849 310.365 C 394.676 315.241, 393.101 319.434, 393.350 319.683 C 393.599 319.932, 399.313 319.604, 406.048 318.955 C 412.783 318.305, 420.429 317.979, 423.040 318.230 L 427.786 318.686 429.264 311.260 C 430.739 303.846, 430.738 303.835, 428.621 304.452 C 427.454 304.792, 423.144 305.739, 419.043 306.558 C 414.941 307.376, 409.414 308.690, 406.761 309.478 C 404.108 310.266, 402.165 310.543, 402.443 310.093 C 402.721 309.643, 404.977 308.706, 407.456 308.012 C 413.336 306.366, 412.255 304.640, 405.892 305.515 C 403.201 305.885, 401 305.871, 401 305.483 C 401 305.096, 403.891 295.716, 407.426 284.639 C 417.057 254.453, 418.313 247.433, 415.499 239.532 C 413.839 234.872, 414.544 234.039, 420.168 234.015 C 425.346 233.994, 427.017 234.857, 428.661 238.400 L 430.099 241.500 429.475 238.500 C 428.731 234.919, 425.322 231, 422.951 231 C 422.016 231, 419.287 231.693, 416.885 232.540 C 409.318 235.210, 414.101 232.448, 423.500 228.720 C 428.450 226.757, 434.300 224.877, 436.500 224.542 C 439.068 224.151, 437.686 224.867, 432.638 226.544 C 425.172 229.023, 424.882 229.229, 426.882 230.630 C 428.546 231.795, 430.767 231.961, 437.459 231.418 L 445.931 230.731 449.465 234.265 C 454.598 239.398, 454.321 242.858, 448.123 251.052 C 443.472 257.202, 436.601 272.864, 431.476 289 C 430.515 292.025, 429.103 295.738, 428.339 297.250 C 427.427 299.054, 427.324 300, 428.040 300 C 430.992 300, 433.005 297.486, 435.039 291.260 C 440.341 275.033, 449.909 262.098, 459.241 258.542 C 464.922 256.377, 469.233 256.867, 476.098 260.456 C 478.774 261.855, 481.218 263, 481.530 263 C 482.184 263, 476.752 254.838, 473.326 250.673 C 471.829 248.854, 470.999 246.537, 470.996 244.173 C 470.989 236.738, 463.922 229.766, 452.681 226.103 C 435.904 220.636, 423.028 218.491, 416.500 220.078 M 386.875 229.050 C 386.086 229.492, 381.558 230.580, 376.814 231.470 C 372.069 232.359, 366.682 233.560, 364.843 234.139 C 363.005 234.719, 356.115 235.487, 349.532 235.846 L 337.565 236.500 334.532 241.921 C 331.174 247.924, 330.052 248.507, 319.983 249.480 L 313.466 250.109 314.405 258.655 L 315.345 267.201 319.422 266.566 C 321.665 266.217, 334.995 263.050, 349.046 259.527 C 363.096 256.005, 376.962 252.809, 379.860 252.424 L 385.129 251.725 384.485 247.914 L 383.841 244.102 389.327 242.507 C 392.344 241.630, 397.608 240.342, 401.025 239.645 L 407.238 238.378 403.999 235.653 C 398.265 230.828, 389.640 227.502, 386.875 229.050 M 320.500 233.668 C 318.300 233.851, 314.587 234.253, 312.250 234.562 C 308.002 235.122, 308 235.125, 308 239.387 C 308 245.306, 310.947 248, 317.421 248 C 321.599 248, 322.120 247.776, 321.478 246.250 C 319.599 241.780, 319.848 240.306, 322.914 237.726 C 325.739 235.349, 327.065 232.761, 325.250 233.168 C 324.837 233.261, 322.700 233.486, 320.500 233.668 M 230.500 234.629 C 194.718 244.245, 170.479 253.490, 151.206 264.873 C 148.294 266.593, 145.707 268, 145.456 268 C 144.036 268, 145.505 265.189, 147.921 263.285 C 154.075 258.435, 190.487 240, 193.912 240 C 194.510 240, 195 239.592, 195 239.094 C 195 238.564, 185.773 238.411, 172.750 238.725 C 151.504 239.238, 150.145 239.391, 142.631 242.105 C 127.460 247.585, 110.528 257.809, 97.840 269.152 C 91.555 274.770, 89.569 276, 86.781 276 C 82.202 276, 79.111 273.776, 80.823 271.713 C 81.510 270.886, 83.624 269.918, 85.521 269.562 C 87.764 269.141, 90.813 267.141, 94.236 263.846 C 101.705 256.655, 110.854 250.313, 122.460 244.284 L 132.500 239.067 115.151 239.034 L 97.803 239 89.320 243.250 C 78.362 248.740, 60.802 261.974, 56.847 267.722 C 52.750 273.678, 50.800 272.111, 54.023 265.453 C 57.241 258.805, 67.206 248.512, 76 242.751 C 84.176 237.396, 83.507 237.298, 69.583 241.810 C 59.734 245.002, 51.046 250.705, 47.208 256.500 C 43.793 261.656, 41.566 271.470, 42.524 277.142 L 43.189 281.078 49.344 280.289 C 52.730 279.855, 68.325 279.525, 84 279.557 C 106.023 279.600, 115.156 280.017, 124.185 281.390 L 135.870 283.166 141.185 279.057 C 158.108 265.972, 184.823 252.154, 213 241.910 C 227.180 236.756, 227.776 236.632, 240 236.312 L 252.500 235.985 243.500 238.439 C 226.045 243.199, 189.362 255.795, 178 260.930 C 164.829 266.882, 153.609 272.943, 154.364 273.697 C 154.647 273.981, 159.843 271.906, 165.909 269.087 C 181.344 261.914, 192.052 258.639, 210.473 255.457 C 229.020 252.253, 235.329 252.676, 247.731 257.953 C 255.860 261.412, 257.737 261.585, 263.900 259.439 C 269.014 257.658, 272.773 258.193, 278.500 261.518 C 292.527 269.661, 302.479 289.444, 305.022 314.236 C 305.684 320.690, 305.980 326.609, 305.681 327.388 C 304.792 329.705, 305.909 329.910, 310.645 328.296 L 315.132 326.767 314.530 304.133 C 314.199 291.685, 313.689 279.155, 313.397 276.288 L 312.866 271.077 309.683 271.673 C 307.932 272.001, 304.700 272.859, 302.500 273.581 C 298.538 274.880, 298.521 274.874, 300.745 273.040 C 301.980 272.021, 305.242 270.610, 307.995 269.905 C 312.188 268.830, 313 268.247, 313 266.311 C 313 265.040, 312.597 264, 312.105 264 C 310.445 264, 297.523 268.210, 294.657 269.685 C 293.093 270.489, 291.577 270.910, 291.287 270.621 C 290.998 270.331, 294.639 268.302, 299.380 266.112 C 304.121 263.921, 308 261.650, 308 261.065 C 308 260.479, 307.887 260, 307.750 260.001 C 306.044 260.006, 292.234 263.339, 290.851 264.079 C 289.833 264.624, 289 264.844, 289 264.567 C 289 264.290, 290.122 263.476, 291.493 262.758 L 293.986 261.452 291.783 258.352 C 288.767 254.105, 283.484 250.640, 281.013 251.286 C 279.906 251.576, 279 251.405, 279 250.906 C 279 250.408, 279.788 249.993, 280.750 249.985 C 281.712 249.977, 287.900 248.695, 294.500 247.136 L 306.500 244.301 306.500 239.652 L 306.500 235.004 280.500 234.997 C 266.200 234.994, 249.550 234.789, 243.500 234.541 C 237.450 234.294, 231.600 234.333, 230.500 234.629 M 401.500 244.504 C 400.950 244.707, 397.913 245.384, 394.750 246.008 C 391.587 246.631, 389 247.560, 389 248.071 C 389 249.127, 398.146 249.321, 402.922 248.366 C 405.110 247.928, 405.999 247.233, 405.786 246.127 C 405.482 244.547, 403.458 243.781, 401.500 244.504 M 292.653 248.731 C 285.668 250.561, 286.732 251.962, 295.125 251.985 C 303.807 252.008, 306.856 251.164, 306.263 248.899 C 305.650 246.552, 301.178 246.497, 292.653 248.731 M 429.195 250.500 C 429.215 252.150, 429.439 252.704, 429.693 251.731 C 429.947 250.758, 429.930 249.408, 429.656 248.731 C 429.382 248.054, 429.175 248.850, 429.195 250.500 M 428.079 255.583 C 428.127 256.748, 428.364 256.985, 428.683 256.188 C 428.972 255.466, 428.936 254.603, 428.604 254.271 C 428.272 253.939, 428.036 254.529, 428.079 255.583 M 35.494 258.578 C 31.167 263.749, 29.840 266.682, 30.191 270.302 C 30.415 272.626, 31.002 273.500, 32.336 273.500 C 33.740 273.500, 34.856 271.524, 37.086 265.090 C 38.689 260.465, 40 256.302, 40 255.840 C 40 254.129, 38.408 255.097, 35.494 258.578 M 409 256.059 C 409 256.641, 409.450 256.840, 410 256.500 C 410.550 256.160, 411 255.684, 411 255.441 C 411 255.198, 410.550 255, 410 255 C 409.450 255, 409 255.477, 409 256.059 M 34.573 263.253 C 31.716 269.293, 31.551 270, 33 270 C 33.550 270, 34 269.307, 34 268.460 C 34 267.613, 34.931 265.095, 36.070 262.863 C 37.208 260.632, 37.916 258.583, 37.643 258.310 C 37.370 258.037, 35.989 260.261, 34.573 263.253 M 220.500 259.455 C 213.930 261.142, 208 263.779, 208 265.013 C 208 266.356, 208.077 266.337, 214.151 263.510 C 217.093 262.140, 220.457 261.015, 221.628 261.010 C 222.798 261.004, 224.315 260.325, 225 259.500 C 225.685 258.675, 226.077 258.038, 225.872 258.085 C 225.668 258.132, 223.250 258.748, 220.500 259.455 M 427.079 259.583 C 427.127 260.748, 427.364 260.985, 427.683 260.188 C 427.972 259.466, 427.936 258.603, 427.604 258.271 C 427.272 257.939, 427.036 258.529, 427.079 259.583 M 240.500 261.784 C 237.013 264.777, 230.346 273.348, 228.180 277.622 C 226.960 280.028, 225.135 282.007, 223.795 282.379 C 219.088 283.682, 178.801 286.119, 159.290 286.281 C 139.201 286.447, 139.097 286.459, 142.006 288.301 C 143.615 289.319, 145.917 291.748, 147.122 293.697 L 149.312 297.240 163.406 296.587 C 191.603 295.280, 213.643 293.869, 220 292.965 C 223.575 292.456, 228.075 292.077, 230 292.122 L 233.500 292.204 230.500 293.085 C 228.850 293.570, 225.700 294.424, 223.500 294.983 C 216.040 296.879, 215.935 297.141, 213.505 319.871 C 212.660 327.775, 211.684 334.703, 211.335 335.267 C 210.660 336.359, 212.487 336.025, 221.749 333.366 C 225.708 332.229, 227.104 331.323, 227.431 329.679 C 227.669 328.481, 228.384 324.575, 229.019 321 C 230.645 311.857, 236.552 293.989, 241.149 284.310 C 243.398 279.574, 247.195 273.759, 250.151 270.525 C 252.963 267.448, 255.083 264.750, 254.862 264.528 C 254.049 263.716, 244.798 260.001, 243.667 260.033 C 243.025 260.052, 241.600 260.839, 240.500 261.784 M 216.750 264.692 C 213.013 266.772, 212 267.881, 212 269.891 L 212 272.445 210.354 269.973 C 206.764 264.581, 202.528 263.472, 199 267 C 196.418 269.582, 196.449 274.030, 199.073 277.365 C 201.792 280.822, 205.552 280.780, 209.350 277.250 C 212.253 274.552, 212.155 275.801, 209.193 279.250 C 208.366 280.212, 208.110 281, 208.623 281 C 210.783 281, 213.998 277.665, 217.040 272.267 C 218.828 269.095, 220.952 265.488, 221.760 264.250 C 223.656 261.348, 222.591 261.442, 216.750 264.692 M 425.079 266.583 C 425.127 267.748, 425.364 267.985, 425.683 267.188 C 425.972 266.466, 425.936 265.603, 425.604 265.271 C 425.272 264.939, 425.036 265.529, 425.079 266.583 M 199.398 268.405 C 198.310 271.241, 199.512 276.281, 201.606 277.663 C 203.447 278.878, 203.978 278.829, 205.814 277.277 C 208.754 274.790, 209.554 270.697, 207.501 268.644 C 205.491 266.634, 200.138 266.476, 199.398 268.405 M 482 269.309 C 482 270.029, 482.661 271.491, 483.468 272.559 C 484.857 274.395, 484.938 274.324, 484.968 271.250 C 484.990 269.014, 484.532 268, 483.500 268 C 482.675 268, 482 268.589, 482 269.309 M 252.584 273.173 C 250.620 275.468, 249.171 277.504, 249.364 277.697 C 249.721 278.055, 258 270.084, 258 269.382 C 258 267.958, 255.625 269.621, 252.584 273.173 M 421.079 279.583 C 421.127 280.748, 421.364 280.985, 421.683 280.188 C 421.972 279.466, 421.936 278.603, 421.604 278.271 C 421.272 277.939, 421.036 278.529, 421.079 279.583 M 458.532 280.969 C 455.497 282.970, 452.809 285.946, 450.828 289.500 C 450.215 290.600, 451.533 289.475, 453.757 287 C 455.981 284.525, 458.064 282.756, 458.385 283.068 C 459.501 284.153, 461.301 298.665, 460.644 301.282 C 460.135 303.311, 459.171 304.065, 456.426 304.580 C 453.420 305.144, 452.432 304.830, 450.058 302.555 L 447.248 299.863 446.549 304.523 C 446.164 307.086, 446.109 309.442, 446.425 309.758 C 446.741 310.075, 447 309.358, 447 308.167 C 447 305.276, 447.899 305.424, 453.100 309.167 C 457.843 312.580, 461 315.782, 461 317.178 C 461 318.313, 456.803 319.891, 450.273 321.211 C 447.399 321.791, 445.259 322.610, 445.518 323.029 C 445.777 323.449, 447.679 323.399, 449.745 322.920 C 455.575 321.566, 460.456 321.736, 459.246 323.250 C 458.696 323.938, 457.941 327.029, 457.568 330.119 C 456.831 336.215, 453.874 342.665, 452.017 342.227 C 449.405 341.610, 454.789 348.355, 458.788 350.710 C 463.791 353.655, 467.536 353.354, 472.442 349.612 C 475.650 347.165, 481.662 337.329, 480.599 336.266 C 479.829 335.495, 479.642 335.729, 477.256 340.440 L 475.262 344.380 473.244 339.818 C 472.134 337.309, 469.613 332.861, 467.641 329.934 C 465.670 327.006, 464.247 324.419, 464.481 324.186 C 464.715 323.952, 466.232 324.602, 467.852 325.630 C 477.658 331.853, 480.179 333.145, 481.512 332.634 C 482.706 332.175, 483 329.859, 483 320.901 L 483 309.738 479.250 310.548 C 477.188 310.993, 472.462 311.346, 468.750 311.332 C 465.038 311.319, 462 311.688, 462 312.154 C 462 313.117, 462.075 313.138, 467.500 313.678 C 473.549 314.279, 474.202 314.250, 478.250 313.191 L 482 312.211 482 321.605 C 482 332.670, 481.695 332.874, 473.883 327.005 C 470.959 324.807, 467.089 322.732, 465.283 322.393 C 461.334 321.653, 461.047 320.456, 464.604 319.563 C 467.585 318.815, 472.282 315.949, 471.617 315.284 C 471.372 315.038, 470.345 315.262, 469.336 315.781 C 465.842 317.575, 462 318.111, 462 316.803 C 462 316.124, 459.990 313.528, 457.533 311.034 L 453.065 306.500 458.783 306.647 C 462.820 306.750, 465.059 306.309, 466.402 305.147 C 468.768 303.099, 477.354 290.021, 476.738 289.405 C 475.541 288.207, 473.092 290.713, 468.797 297.533 C 466.210 301.640, 463.510 304.996, 462.797 304.992 C 461.811 304.986, 461.470 301.991, 461.375 292.492 L 461.249 280 464.674 280 C 468.950 280, 473.128 282.110, 476.006 285.722 C 477.925 288.131, 478.025 288.168, 476.757 286 C 472.994 279.565, 464.303 277.166, 458.532 280.969 M 16.065 286.658 C 15.124 290.392, 15.150 291.479, 16.196 292.142 C 18.817 293.805, 22.636 292.989, 25.313 290.195 C 28.176 287.207, 28.647 286, 26.952 286 C 26.375 286, 24.041 285.100, 21.764 284 C 19.487 282.900, 17.537 282, 17.431 282 C 17.324 282, 16.710 284.096, 16.065 286.658 M 259.322 286.326 C 255.189 287.853, 253.986 289.116, 256.994 288.772 C 259.719 288.459, 260.391 290.507, 261.536 302.613 C 262.190 309.527, 262.130 309.798, 259.365 312.363 C 255.721 315.741, 254.136 315.680, 248.037 311.928 C 245.290 310.238, 242.543 309.164, 241.931 309.542 C 241.295 309.936, 243.532 311.721, 247.160 313.716 C 250.647 315.633, 254.436 318.064, 255.581 319.117 C 257.638 321.009, 257.661 321.006, 257.581 318.877 C 257.525 317.398, 258.523 316.217, 260.762 315.111 L 264.024 313.500 263.762 300.629 C 263.456 285.600, 263.899 284.754, 270.972 286.874 C 275.045 288.094, 285 296.480, 285 298.691 C 285 299.274, 283.762 300.028, 282.250 300.369 C 280.382 300.789, 277.630 303.394, 273.668 308.494 C 270.461 312.622, 267.498 316, 267.085 316 C 265.816 316, 259.650 324.220, 259.511 326.097 C 259.366 328.075, 252.026 334.480, 246.533 337.422 C 241.660 340.033, 240.627 338.745, 240.159 329.471 C 239.718 320.739, 240.440 317, 242.569 317 C 245.097 317, 250.258 319.995, 254.393 323.860 C 258.208 327.427, 258.241 327.437, 256.035 324.358 C 253.431 320.724, 250.114 318.119, 244.336 315.172 L 240.234 313.079 239.617 316.164 C 238.548 321.508, 238.969 335.295, 240.359 340.500 C 245.070 358.136, 258.817 369.532, 270.983 365.887 C 275.927 364.406, 282.837 358.574, 285.494 353.641 C 287.683 349.575, 287.652 349.507, 283.218 348.662 C 280.393 348.124, 279.810 348.369, 279.030 350.421 C 277.830 353.577, 276.244 354.448, 274.433 352.945 C 273.196 351.918, 273.064 352.027, 273.626 353.609 C 273.996 354.649, 275.165 356.465, 276.224 357.645 C 277.567 359.139, 277.804 360.003, 277.009 360.495 C 276.381 360.883, 275.648 360.981, 275.381 360.714 C 275.113 360.446, 272.822 360.851, 270.288 361.614 C 264.819 363.260, 262.051 363.350, 258.494 361.998 L 255.858 360.996 257.868 358.441 C 261.117 354.310, 263.282 346.418, 262.791 340.494 C 262.177 333.086, 264.316 334.239, 268.669 343.660 C 270.535 347.697, 272.207 351, 272.386 351 C 272.566 351, 271.475 347.352, 269.964 342.893 C 267.241 334.863, 267.234 334.766, 269.159 332.841 C 272.633 329.367, 277.652 332.449, 283.667 341.750 C 285.534 344.637, 287.685 347, 288.448 347 C 290.081 347, 292 339.094, 292 332.367 C 292 325.053, 289.637 327.500, 288.655 335.830 C 287.764 343.394, 286.590 344.803, 284.975 340.250 C 284.438 338.738, 283.549 336.719, 283 335.764 C 282.450 334.809, 282 333.417, 282 332.672 C 282 331.884, 279.488 330.556, 276 329.500 C 271.668 328.188, 270 327.201, 270 325.947 C 270 324.452, 270.522 324.332, 273.750 325.081 C 275.813 325.560, 280.762 325.963, 284.750 325.976 C 291.613 325.999, 291.999 325.880, 291.985 323.750 C 291.976 322.512, 291.639 321.954, 291.235 322.509 C 290.831 323.064, 287.949 323.666, 284.832 323.846 C 279.921 324.130, 279.014 323.895, 278.047 322.087 C 276.616 319.413, 273.622 319.234, 274.459 321.872 C 275.026 323.658, 274.846 323.675, 270.527 322.253 C 268.037 321.434, 266 320.470, 266 320.113 C 266 319.755, 270.448 315.031, 275.885 309.615 C 284.778 300.755, 285.879 299.954, 286.855 301.633 C 287.451 302.660, 287.953 303.038, 287.970 302.473 C 288.057 299.529, 279.021 289.615, 273.790 286.915 C 269.653 284.780, 264.118 284.554, 259.322 286.326 M 261.079 291.583 C 261.127 292.748, 261.364 292.985, 261.683 292.188 C 261.972 291.466, 261.936 290.603, 261.604 290.271 C 261.272 289.939, 261.036 290.529, 261.079 291.583 M 290.079 311.583 C 290.127 312.748, 290.364 312.985, 290.683 312.188 C 290.972 311.466, 290.936 310.603, 290.604 310.271 C 290.272 309.939, 290.036 310.529, 290.079 311.583 M 30.259 313.311 C 31.232 314.098, 32.483 317.244, 33.056 320.346 C 34.170 326.373, 33.605 328.464, 29.701 332.750 C 26.203 336.591, 30.291 335.522, 34.414 331.518 C 38.590 327.463, 38.981 324.347, 36.039 318.576 L 34.078 314.729 40.289 315.344 C 60.035 317.297, 90.698 318.115, 116 317.363 C 131.125 316.914, 144.175 316.536, 145 316.523 C 145.981 316.508, 146.612 317.673, 146.824 319.888 C 147.281 324.672, 146.503 327.051, 142.577 332.885 C 139.675 337.198, 139.417 338, 140.933 338 C 143.622 338, 148.061 334.099, 149.621 330.364 C 151.341 326.247, 151.419 316.888, 149.750 314.873 C 148.700 313.606, 146.659 313.482, 137 314.098 C 110.293 315.803, 57.784 314.971, 34 312.467 C 29.136 311.955, 28.703 312.052, 30.259 313.311 M 381.500 312.690 C 380.400 312.941, 366.563 316.304, 350.750 320.162 C 325.554 326.309, 322 327.413, 322 329.088 C 322 330.140, 322.450 331, 323 331 C 323.550 331, 333.787 329.186, 345.750 326.970 C 363.474 323.686, 385.492 320, 387.385 320 C 387.604 320, 388.055 318.917, 388.387 317.593 C 388.720 316.269, 389.267 314.469, 389.603 313.593 C 390.092 312.319, 389.542 312.023, 386.857 312.116 C 385.011 312.180, 382.600 312.438, 381.500 312.690 M 291.195 317.500 C 291.215 319.150, 291.439 319.704, 291.693 318.731 C 291.947 317.758, 291.930 316.408, 291.656 315.731 C 291.382 315.054, 291.175 315.850, 291.195 317.500 M 263.153 323.247 C 262.519 323.881, 262 325.240, 262 326.266 C 262 327.711, 262.619 328.061, 264.741 327.816 C 268.035 327.436, 268.933 324.570, 266.214 323.114 C 264.873 322.397, 263.964 322.436, 263.153 323.247 M 459.645 332.297 C 458.699 336.310, 457.036 341.056, 455.950 342.843 L 453.974 346.091 457.656 347.630 C 459.818 348.533, 462.404 348.898, 463.919 348.513 C 465.339 348.152, 467.962 347.615, 469.750 347.319 C 471.538 347.023, 473 346.351, 473 345.826 C 473 342.730, 463.592 325, 461.949 325 C 461.628 325, 460.592 328.284, 459.645 332.297 M 423.560 328.938 C 419.891 332.767, 412.969 335.664, 403.322 337.407 C 393.954 339.100, 396.049 339.317, 409 337.996 C 426.527 336.209, 425.678 336.543, 426.287 331.183 C 426.579 328.607, 426.714 326.392, 426.586 326.260 C 426.459 326.129, 425.097 327.334, 423.560 328.938 M 446.079 327.583 C 446.127 328.748, 446.364 328.985, 446.683 328.188 C 446.972 327.466, 446.936 326.603, 446.604 326.271 C 446.272 325.939, 446.036 326.529, 446.079 327.583 M 380.269 327.693 C 381.242 327.947, 382.592 327.930, 383.269 327.656 C 383.946 327.382, 383.150 327.175, 381.500 327.195 C 379.850 327.215, 379.296 327.439, 380.269 327.693 M 374.750 328.662 C 375.438 328.940, 376.563 328.940, 377.250 328.662 C 377.938 328.385, 377.375 328.158, 376 328.158 C 374.625 328.158, 374.063 328.385, 374.750 328.662 M 310.230 330.867 C 304.493 332.869, 303.306 333.639, 304.346 334.680 C 305.461 335.795, 320.149 331.948, 319.723 330.653 C 319.118 328.814, 315.903 328.887, 310.230 330.867 M 369.269 329.693 C 370.242 329.947, 371.592 329.930, 372.269 329.656 C 372.946 329.382, 372.150 329.175, 370.500 329.195 C 368.850 329.215, 368.296 329.439, 369.269 329.693 M 263.431 331.112 C 263.053 331.723, 263.352 332.600, 264.095 333.059 C 265.364 333.843, 266.947 332.578, 266.985 330.750 C 267.009 329.582, 264.199 329.868, 263.431 331.112 M 363.750 330.662 C 364.438 330.940, 365.563 330.940, 366.250 330.662 C 366.938 330.385, 366.375 330.158, 365 330.158 C 363.625 330.158, 363.063 330.385, 363.750 330.662 M 397 330.633 C 395.625 330.832, 390.450 331.473, 385.500 332.058 C 380.550 332.643, 370.121 334.226, 362.325 335.577 C 350.221 337.673, 320.792 342.032, 319.061 341.985 C 318.752 341.976, 319.175 341.533, 320 341 C 322.392 339.454, 319.677 339.732, 310.212 342.001 C 301.446 344.103, 296 346.411, 296 348.026 C 296 349.402, 297.886 349.260, 308.843 347.064 C 321.678 344.492, 330.945 342.946, 366 337.528 C 394.169 333.175, 409.451 330.117, 402.500 330.226 C 400.850 330.251, 398.375 330.435, 397 330.633 M 250.500 336.594 C 242.079 342.281, 241.814 342.806, 244.618 348.228 C 246.648 352.154, 251.975 358, 253.522 358 C 257.047 358, 261.660 344.789, 260.071 339.246 C 259.487 337.210, 259.579 335.771, 260.349 334.899 C 261.217 333.917, 261.063 333.927, 259.726 334.941 C 257.383 336.716, 256.310 335.547, 258.381 333.476 C 260.141 331.716, 260.422 330.946, 259.250 331.095 C 258.837 331.148, 254.900 333.622, 250.500 336.594 M 357.750 331.662 C 358.438 331.940, 359.563 331.940, 360.250 331.662 C 360.938 331.385, 360.375 331.158, 359 331.158 C 357.625 331.158, 357.063 331.385, 357.750 331.662 M 352.750 332.662 C 353.438 332.940, 354.563 332.940, 355.250 332.662 C 355.938 332.385, 355.375 332.158, 354 332.158 C 352.625 332.158, 352.063 332.385, 352.750 332.662 M 347.750 333.662 C 348.438 333.940, 349.563 333.940, 350.250 333.662 C 350.938 333.385, 350.375 333.158, 349 333.158 C 347.625 333.158, 347.063 333.385, 347.750 333.662 M 24.742 338.532 C 29.760 342.047, 42.390 344.945, 70.500 349.032 C 84.631 351.087, 86.728 351.146, 106.692 350.066 C 127.102 348.961, 139.624 347.528, 154.500 344.596 C 158.350 343.837, 167.238 342.193, 174.250 340.942 C 181.263 339.691, 186.842 338.508, 186.647 338.313 C 186.080 337.747, 163.160 339.916, 142 342.539 C 131.275 343.868, 114.400 345.643, 104.500 346.483 L 86.500 348.010 61.500 343.994 C 47.750 341.785, 33.876 339.308, 30.669 338.489 C 23.287 336.604, 22.003 336.613, 24.742 338.532 M 218.500 338.688 C 216.850 338.901, 206.950 340.814, 196.500 342.938 C 186.050 345.062, 173.542 347.370, 168.705 348.067 C 163.868 348.765, 159.679 349.710, 159.396 350.168 C 158.787 351.154, 193.071 351.269, 211.253 350.341 L 224.006 349.691 225.063 345.596 C 225.644 343.343, 226.348 340.712, 226.627 339.750 C 227.156 337.925, 225.782 337.746, 218.500 338.688 M 322.813 339.683 C 323.534 339.972, 324.397 339.936, 324.729 339.604 C 325.061 339.272, 324.471 339.036, 323.417 339.079 C 322.252 339.127, 322.015 339.364, 322.813 339.683 M 380.500 345.010 C 366.200 346.541, 342.365 349.190, 327.534 350.897 C 312.702 352.604, 299.690 354, 298.617 354 C 297.544 354, 296.936 354.269, 297.265 354.598 C 297.775 355.109, 397.114 357.857, 418.887 357.964 L 426.274 358 421.850 353.250 C 419.417 350.637, 416.825 347.038, 416.092 345.250 C 414.445 341.240, 415.629 341.248, 380.500 345.010 M 81.500 359.614 C 77.650 362.690, 74.050 365.650, 73.500 366.193 C 72.842 366.843, 75.403 366.976, 81 366.581 C 85.675 366.251, 102.550 365.541, 118.500 365.004 C 134.450 364.468, 154.025 363.712, 162 363.325 L 176.500 362.622 168 361.358 C 160.841 360.292, 146.186 358.932, 94.500 354.533 L 88.500 354.023 81.500 359.614" stroke="none" fill="black" fill-rule="evenodd"/>
</svg>